<svg class="fist-illustration" clip-rule="evenodd" fill-rule="evenodd" stroke-linejoin="round" stroke-miterlimit="2" viewBox="0 0 2168 3474">
  <path d="m1828.01 413.935-362.672-245.958-252.177 24.191-43.43-74.788-898.744-.089c-81.52 180.655-94.856 370.843-94.955 569.802l-127.868 293.607c48.271 192.406 68.991 226.77 112.101 411.17 4.79 20.489 66.243 86.45 71.809 107.534 2.354 8.917 81.145 81.732 83.659 90.772 8.542 30.721 249 345.3 258.635 376.02l-36.69 310.495-172.392 1183.38h1576.1l-111.279-1229.5 244.273-528.877v-1112.35l-246.372-175.411z" fill="#e6dba8"/>
  <path d="m1716.41 1378.41-26.297-22.419-20.61-15.939-4.453-4.496-16.15-12.051-4.67-4.788-16.295-11.612-3.801-4.36-19.844-16.118-4.687-4.905-3.681-4.193-5.849-4.79-11.82-7.904-9.033-12.147-3.236-3.671-16.367-11.828-5.105-5.808-12.204-10.689-11.684-5.186-5.457-5.816-3.491-3.047-3.214-3.029-1.889-8.989-3.801-3.612-2.984-5.136-3.686-3.956-15.58-4.409-5.702-4.497-4.438-3.891-4.326-4.541-3.231-3.636-5.417-4.759-2.25-3.164-5.94-4.338-3.642-4.658-6.327-3.827-1.9-4.538-5.35-4.017-2.811-4.135-12.768-15.723-4.416-4.745-7.183-3.811-12.131 2.616-10.577 4.728-7.324 3.698-12.351 4.899-10.031 5.641-2.903 1.788-6.959 3.96-4.124 2.136-9.256 3.675-4.575 4.967.472 21.141 3.532 7.647.942 23.886 3.949 42.836-.457 8.229.134 33.227 4.121 37.158.488 19.635 3.774 8.913.424 8.794-5.118-13.044-3.811-12.331-.016-3.72-3.868-8.74-4.467-7.497.563-4.891-5.197-20.279-6.384-4.948-5.238-8.383-5.503-20.388-3.016-4.733-3.391-4.192-9.494-19.272-4.336-6.216-4.385-12.019-3.354-4.141-3.865-7.3-3.617-8.341-1.278-4.6-4.157-9.448-7.441-11.975-3.945-3.568-8.359-4.126-9.186-4.574-8.202-3.811-7.007-4.189-9.413-3.758-12.744-8.181-7.873-3.674-7.889-4.39-17.218-8.469-16.063-8.26-8.83-4.432-7.845-4.555-18.016-8.085-7.684-4.204-4.825-3.759-18.975-12.437-5.784-3.922-4.1-1.756-16.029-10.761-3.751-.949-8.553-2.764-4.836-.991-7.384-4.219-20.375-.256-26.553-.177-8.312-6.625-12.244-.363-8.165 2.073-4.661-.102-4.024-2.835-3.054-.035-8.655-3.444-8.924 3.148-3.333-.417-4.662-.035-13.175-7.65-19.104 3.336-17.605-3.753-11.749-.264-20.099-4.314-27.593.692-3.376.91-11.895 2.466-8.793 4.903-3.308.037-8.688 4.092-7.537.855-12.907 7.927-10.333 4.456-6.168-.921-4.073 4.297-12.581 4.884-9.81 4.315-6.92 3.167-4.373 3.797-5.016.035-13.733 4.697-10.125 4.879-17.021 11.911-4.657 2.906-4.081.275-8.345 5.36-3.574 3.317-4.553 1.733-2.817 2.688-9.274 5.025-12.082 7.879-4.208.247-3.515 3.613-8.681 3.706-9.354 4.964-11.91 8.904-21.263 11.745-7.899 4.452-7.975 4.319-4.161 3.402-8.572 4.193-8.871 3.891-3.831 3.811-8.589 4.558-12.088 8.117-12.173 8.429-9.083 4.376-3.99 4.323-8.453 4.244-21.193 8.149-3.849 7.799-12.959 8.822-10.619 5.025-14.244 12.224-11.928 8.649-29.694 19.613-24.366 19.434 28.468-24.211 12.646-10.745 9.929-9.931 10.249-6.91 5.399-8.558 7.079-4.297 5.725-4.604 4.024-8.89 3.996-3.855 3.862-3.587 4.282-4.023 3.822-3.572 7.871-5.898.943-2.599 3.86-4.194 28.767-33.329 4.98-5.139 7.883-7.446 8.287-13.123 12.651-15.217 5.04-9.958 3.987-3.827 4.395-8.616-.115-3.122-7.873-4.577-6.229 1.312-5.274 3.279-10.927 3.547-7.601 4.003-12.213 5.01-13.19 4.364-15.696 3.779-5.656.756-8.128 2.275 16.726-7.515 4.479-3.845 13.134-9.056 3.729-2.524 11.808-8.073 4.816-5.656 3.626-3.677 13.888-8.89 3.124-3.678 3.687-4.13 5.492-4.072 5.912-2.807 5.649-5.199 4.542-4.48 4.523-3.986 2.414-3.674 12.691-7.843 5.016-5.22 4.32-3.966 4.364-4.426 3.226-3.094 5.817-6.707 17.127-11.08 8.134-9.429 3.846-4.299 3.237-2.663 11.495-5.035 4.722-3.637 4.742-7.688 3.899-5.408 3.901-3.082 5.009-4.755 3.683-3.108 4.387-5.275 3.821-5.232 3.665-7.442-7.513-5.172-4.737 5.191-8.413.187-3.862.308-11.471 3.619-12.214.487-10.679 3.976-15.77.379-16.229 3.771-20.46.008-24.873 3.814-92.96-.101-11.947-3.684-16.371.471 24.33-5.034 8.552-3.408 9.186-3.615 3.918-.646 6.808-3.785 7.019-1.084 3.705-2.765 2.513-.326 3.891-.085 6.194-3.889 3.006-.471 7.647-3.647 4.44-.069 8.922-4.692 3.253-.035 5.694-3.564 2.801-.095 4.352-.261 3.209-3.858h4.293l4.314-.954 6.817-3.579 1.949-.22 3.253-.057 5.2-3.112 4.208-.456h3.48l4.689-4.093 4.789-.127 3.127-.357 9.719-8.061v-3.969l-2.903-4.123-6.202-4.84-.11-4.192-3.414-8.937-4.85-7.876-4.237-11.219-2.877-6.332-.035-2.952-5.124-7.423-.028-6.087-4.831-7.229.207-3.722-4.028-8.142-.167-6.047-3.297-11.145-.466-5.502-3.04-7.11-.454-5.954-.133-2.481-5.1-13.225-.029-6.291.889-10.483-4.615-11.272.555-50.223 4.895 13.031 2.926 8.734 1.536 8.157 1.82 3.092.056 2.971 4.937 5.899.291 3.384 4.799 5.728.307 6.938 2.239 4.213.737 5.393 4.037 3.878v3.703l3.865 3.757 4.659 7.957 4.194 8.72 4.348 4.036 3.928 9.062 3.798 3.873 3.467 7.644 4.685 5.269 3.379 2.851 5.555 5.812 3.642 3.519 3.627 3.061 5.677 4.714 3.421 3.585 8.1 4.765 8.206 3.686 64.406.539 11.18-.127 11.912-3.362 3.61-.117 3.984-.343 4.577-.447 5.099.489 13.049-.872 11.625-2.714 3.744-.097 8.316-.312 13.404-4.193 8.625-.518 3.167-.138 13.287-3.684 3.796-.111 11.587-3.661 5.334-.737 11.562-3.667 5.671-.518 10.661-4.222 12.465-3.271 13.589-4.955 9-3.523 11.329-3.771 20.729-9.294 4.975-.002 3.603-3.889 8.194-3.618 7.941-4.508 9.329-4.495 4.014-4.234 7.488-3.43 3.701-1.396 3.434-2.765 13.417-8.278 4.962-4.644 4.768-4.903 6.394-3.566 4.284-3.645 5.169-3.479 4.932-6.038 3.123-2.912 20.846-20.321 6.045-6.011 3.068-3.955 9.883-16.447 6.172-3.837 4.599-8.042 4.325-4.502 4.869-7.707 4.042-8.966 3.882-7.627 3.007-4.72 4.553-4.743.104-12.287 4.167-11.962.481-9.578 3.67-18.614-3.985-11.912-.84-4.95-8.102-9.368-7.896-4.034-3.649-.519-8.703-4.246-4.316-.028-8.395-3.818-4.037-.446-7.939-2.991-4.711-.757-12.143-4.276-5.628.496-11.209-4.482-4.152-.084-12.45-4-8.393.032-8.645-3.592-11.442-1.341-13.73-4.413-16.21.76-8.523-3.479-17.296-1.469-24.612-2.957-25.025-.258-14.649-4.257-121.039.174-9.505-.312-12.361-.64-9.019-3.65-6.72-3.49-5.262-3.196-2.635-1.359-9.205-6.938-7.758-5.377-12.037-4.841-7.033-3.582-2.297-.151-4.609-4.543-3.491-2.697-8.022-4.512-8.987-3.6-8.088-4.724-9.679-4.584-7.098-4.034-16.691-9.111-4.251-3.014-16.533-8.838-8.565-4.922-8.38-3.613-15.154-3.257-17.574 6.354-17.749 6.533-8.049 2.945-11.905 3.623-8.116 5.425-5.051.05-12.31 4.725-7.776 4.246-8.704 3.775-8.488 4.177-7.832 7.436-12.235 7.68-25.852 21.901-11.678 16.252-5.129 4.655-11.903 16.41-3.756 3.712-5.488 4.174-7.157 14.005-4.218 3.646-5.523 5.292-1.702 1.676-9.431 13.666-3.546 3.165-7.96 12.4-5.381 13.251-11.847 24.78-12.496 28.986-8.822 16.948-7.581 16.858-4.892 12.177-3.226 7.79-4.967 8.699-3.491 4.762-4.008 3.557-.497 8.508-5.27 8.691-2.152 7.415-5.425 3.318-.691 9.704-4.212 8.657-3.153 11.484-7.929 17.208-4.748 13.603-3.133 6.446-3.007 8.292-5.789 13.113-4.585 8.768-4.988 12.289-3.759 7.902-3.411 12.73-4.234 8.081-4.506 9.027-3.77 12.555-4.494 7.092-7.42 18.208-4.82 11.684-5.401 12.178-3.85 9.876-3.175 7.104-.478 2.578-3.928 9.678-.937 8.191-3.591 9.293-.3 15.693-3.018 8.307.372 41.164 2.373 4.932.993 21.34 3.71 3.012-.05 9.056 3.868 4.206.964 7.922 3.617 4.564.308 4.522.565 3.177 2.655 3.569.82 5.634 3.165 5.617 1.803 6.672 3.29 7.448 3.616 11.694 5.058 12.921 3.509 13.361 3.469 11.999 5.47 8.446 4.593 13.041 3.029 10.372 5.027 13.011 3.655 13.505 3.983 8.328 3.23 12.211 5.453 12.791 3.986 7.704 4.832 12.918-.062 11.883 6.627 13.261 5.466 9.445 4.92 14.679 2.859 12.197 3.813 8.936 5.59 17.054 3.177 7.447 15.842 12.586 4.868 4.559 8.65 8.341 7.366 3.772 17.562 17.026 21.183 13.499 3.426 2.819 12.425 8.006 4.791 4.611 12.569 7.785 3.265 4.935 7.944 4.046 4.88 3.783 12.412 7.9 4.047 4.676 12.344 8.732 13.006 8.212 13.29 8.322 12.336 8.451 3.193 4.383 9.495 4.252 3.898 4.875 6.511 2.981 5.619 4.104 6.986 3.763 6.311 5.371 6.454 3.141 4.925 4.412 8.274 4.7 4.187 3.913 12.752 8.024 12.944 8.444 8.296 3.993 4.797 4.745 10.916 5.705 9.31 5.932 12.083 8.123 16.59 8.816 7.438 7.824 10.05 4.805 7.545 3.868 8.896 5.353 6.906 3.096 21.357 11.761 12.861 9.622 27.992 15.247 21.643 13.107 20.421 11.989 13.129 9.196 8.169 4.415 9.174 4.614 11.324 7.033 8.139 4.659 12.481 7.181 8.092 4.527 22.061 13.264 6.849 4.266 9.794 7.602-9.48 5.581-4.06 3.202-11.898 7.833-13.56 8.506-11.771 8.485-8.233 4.428-8.917 4.841-8.278 4.037-7.905 4.024-7.368 3.465-9.353 4.856-8.257 2.626-12.991 4.719-11.341 5.21-8.352 7.66-.303 3.465-.777 21.112.818 9.358-3.77 24.287-.566 13.734-4.174 8.051-.384 32.441-4.819 24.196.326 13.755-3.463 7.721.716 33.825-5.003 20.299-.69 17.175-3.566 23.144-.853 17.834-4.19 17.142.472 19.174-3.956 14.378-.01 24.545-3.706 8.836.092 26.974-4.637 18.504-.155 16.385-3.903 20.512-.271 20.823-3.021 10.948-1.215 26.124-4.542 20.136.521 18.256-3.68 19.177-.86 21.353-3.039 20.789-.561 16.629-3.526 16.792-.398 8.918-.263 12.668-3.707 19.401-.53 17.901-3.535 20.107.289 17.515-4.889 20.139-.224 16.88-3.952 20.861v17.244l-3.518 23.238-.059 17.955-4.101 16.306-.189 21.674-3.941 19.491-.792 14.203-4.256 27.901v13.298l-3.865 19.312.09 17.872-4.767 25.023.649 12.363-3.683 23.469-.331 17.606-4.603 19.302.246 17.026-4.603 13.442-.382 22.169-2.703 22.857-.178 13.487-.093 9.31-3.735 13.909-.684 17.964-3.931 24.08-.414 13.908-4.252 23.132.092 17.339-4.154 16.791.357 17.455-3.886 16.318-.764 29.954-3.757 11.048-.777 24.957-3.986 11.368.113 25.767-3.783 16.749-.909 21.637-3.667 11.854-.927 25.894-2.882 9.073-.087 26.976-4.113 17.102.335 8.591.074 7.348-7.704 1.593-9.667-.836-108.021-.389.89-8.305.277-7.605 3.945-16.094 4.001-25.854v-20.983l4.559-29.06 3.77-33.443 3.312-36.552 4.738-30.114.25-29.098 3.907-8.105.052-17.348-.072-3.355 3.28-10.457.863-22.246.813-4.952 2.466-7.574 1.13-17.374.165-12.642 3.312-7.608.515-25.412 4.362-23.649-.162-9.2 4.599-16.026-1.125-17.439 5.278-21.664.343-11.702 3.784-16.989-.125-16.181 4.266-19.548.274-14.739 4.056-14.88-.238-18.529 3.652-19.303-.082-13.493 4.222-19.518.717-13.416 3.713-20.495-.217-17.274 4.274-16.101.342-16.9 3.557-16.899.308-16.681 4.071-15.219.848-13.466 3.072-17.245 1.035-20.653 3.467-14.655.592-15.065 2.507-19.087.306-14.398 5.101-23.567-.14-12.223 3.972-15.922.048-17.732 4.57-16.188-.177-17.067 3.711-16.703.087-19.868 3.926-13.299-.265-20.118 4.736-11.059.449-21.64 3.293-13.199-.184-21.228 4.198-10.871.31-26.93 4.79-10.365.403-18.686 3.927-7.843-.517-20.887 4.49-18.831.512-18.641 3.369-14.254.349-19.137 4.569-16.56-.582-20.32 4.157-12.181-.06-18.737 4.464-15.248-.049-15.689 3.458-16.624.761-17.345 2.939-11.638.751-22.223 4.506-11.509-.052-5.26-3.741-10.642-.575-13.824-4.338-15.363.616-9.277-5.069-15.616.53-13.856-3.752-11.305-.955-12.566-3.175-4.175-4.807-4.601-4.222-4.629-3.32-3.096-9.45-13.912-3.989-4.215-3.073-2.918-4.85-3.91-7.839-13.293-3.822-3.512-4.597-4.298-4.438-4.552-3.463-3.931-13.618-16.994-3.821-4.158-3.957-2.885-5.877-5.251-6.815-12.941-5.104-3.681-3.683-4.218-4.072-3.937-8.312-12.239-12.464-12.752-20.32-29.141-12.272-12.631-12.481-17.94-9.604-10.736-4.127-5.395-2.355-2.897-5.752-8.947-7.514-8.259-3.433-3.284-8.451-10.803-5.195-6.525-8.085-12.227-4.867-4.715-4.579-4.427-3.755-8.385-3.34-3.13-8.572-12.58-4.354-4.107-4.395-4.713-8.099-11.284-7.18-13.598-4.838-3.972-13.083-16.221-8.911-13.545-2.748-3.51-3.926-8.132-8.552-8.491-8.911-16.393-8.19-5.428-8.276-11.24-.401-8.247-7.313-4.085-9.438-14.436-11.498-18.449-1.625-4.566-4.535-5.666.279-2.707-3.594-4.31-3.409-8.546-.418-4.445-5.227-4.198-2.76-7.929-.091-3.992-4.386-7.739-3.278-7.428-4.581-10.263-.929-4.116-2.878-3.4-1.198-3.807-3.458-5.309-.461-4.438-3.709-6.864-.18-4.715-3.532-3.965-3.919-9.553-.247-3.091-4.651-8.459-4.085-8.183-.59-5.159-3.671-7.613-3.752-7.996-.426-4.383-4.542-7.256.099-4.128-2.999-5.481-.643-3.807-4.267-8.828-.04-3.223-3.961-8.025-.589-4.625-3.298-3.49-.937-4.82-3.041-8.261-1.031-5.147-3.506-6.837-.728-5.949-4.156-7.715-.38-3.954-4.145-7.775.013-5.46-4.301-8.644v-2.577l-2.905-9.469-1.267-4.367-2.571-8.347-1.082-3.374-3.413-11.287-.09-4.742-4.665-13.28-3.353-11.403-4.672-15.067-.039-5.725-3.773-11.726-.272-43.875 4.333-10.85 4.175-13.035 4.315-8.573 4.932-12.029 2.647-12.826 4.289-8.711 4.372-12.719 4.242-8.939 4.793-11.491 2.979-3.047.411-4.094 4.169-8.883 4.368-8.716 4.008-8.604 3.968-8.319.052-3.809 3.073-3.77.839-4.555 4.401-3.448v-3.701l4.244-5.88.1-2.723 3.867-5.309.536-4.016 3.353-4.446.106-3.392 3.265-4.002.877-3.103 4.051-5.37.449-3.898 3.862-4.746 4.248-8.699 4.015-8.371 4.424-5.142.217-3.956 3.974-3.245 4.066-6.932 4.621-12.83.171-7.9-.219-22.901-3.506-19.502-.269-19.843-4.994-21.691.22-22.099-4.231-16.361-.103-20.547-4.642-19.268 1.375-9.555.071-12.259-4.145-21.748-.489-12.113-4.66-24.922.023-7.588.652-12.274-4.085-21.687-.838-16.313.555-24.695 3.849-8.43 3.827-3.809 4.802-9.007-.107-4.204 4.132-4.58 2.973-2.99 4.405-9.321 5.303-7.877 7.419-12.946 4.698-8.283 5.005-7.422 7.371-12.432 5.641-9.402 6.612-10.627 7.583-9.415 5.699-16.263 3.736-5.956 8.441-15.289 4.817-10.451 8.801-9.795 3.075-9.769 4.414-8.52 3.066-2.656 4.583-9.059 3.903-7.289 5.044-3.679 4.311-8.414 4.267-9.243 3.969-5.58 3.124-6.847 5.101-8.699 3.881-7.493 3.658-5.184 4.41-7.967 3.257-2.951.833-5.763 4.014-4.948 3.579-7.079 4.71-4.6 9.766-3.705h3.229l11.388-4.344 5.209-.168 13.123-4.454 14.951-3.679 13.175-3.54 12.143-4.513 12.436-3.211 13.004-5.517 12.535-3.621 13.321-4.23 11.531-3.755 13.221-4.755 11.897-4.203 12.071-3.967 11.924-4.248 18.926-4.508 11.035-4.226 12.315-3.254 12.544-4.687 12.462-4.215 12.181-4.109 8.275-5.244 6.989-3.981h12.919l164.104 83.583 8.782 1.695 80.587-52.358 234.388-.562 162.77 128.048h9.539l42.29-25.233 25.674-.218 253.63 50.011 93.811 114.15 216.375 43.848 37.398 61.099 17.834 29.053 21.471 27.473 47.494 55.504 29.316 25.822 68.67 65.676 35.942 51.703 16.467 31.307 11.361 32.815 2.157 47.884-1.709 36.428-4.489 17.863-.55 10.487-4.296 16.13-4.802 23.006-3.656 22.797-3.713 17.085-5.345 20.817-3.079 16.728-3.207 19.906-6.129 16.744 1.355 60.202 3.736 41.034 5.364 37.928 3.674 43.264 3.162 52.661 1.134 186.136-4.88 55.001-3.434 30.198-4.868 25.594-4.672 21.381-4.662 17.012-2.82 19.132-5.268 16.079-3.856 13.441-3.895 13.218-3.639 13.395-3.993 11.817-5.335 13.823-3.374 12.811-4.503 12.336-3.793 12.553-3.668 11.79-5.274 12.44-3.396 12.282-3.985 8.677-4.329 11.467-4.856 13.208-3.931 12.848-4.16 7.392-4.236 12.404-3.314 9.48-5.514 12.012-3.177 12.293-4.414 8.827-4.602 12.448-5.126 11.658-2.589 12.588-4.869 7.86-3.892 12.916-4.845 8.249-3.845 9.113-3.602 9.116-4.016 11.842-4.301 7.241-4.696 8.54-4.397 8.776-2.931 6.962-5.214 13.931-3.143 6.727-4.842 10.315-4.077 7.317-3.734 9.195-3.737 7.242-4.46 11.229-4.291 10.752-4.725 11.192-4.372 11.899-3.776 13.541-5.22 14.152-3.712 12.003-3.477 7.642-.189 15.286-3.223 17.049 3.289 17.515 4.779 82.937 3.102 91.309 4.081 87.94 4.673 92.559 3.827 90.24 5.188 83.658 3.704 91.581 4.124 94.247 4.002 86.899 3.449 92.002 4.579 82.182 4.555 92.167 3.821 90.255 4.815 89.619.593 42.065-174.89 2.692-4.656-69.91-5.266-99.319-2.647-109.28-4.606-103.736-3.35-107.213-4.441-99.995-4.638-108.275-4.806-105.516-4.328-102.691-3.374-108.357-3.236-97.505-1.421-227.106 42.449-36.892 6.714-11.869 8.836-15.904 5.387-13.887 3.698-12.451-.154-17.056 4.498-19.364-.553-31.435 4.487-31.267-.125-34.036 3.268-7.695 1.839-17.256 3.187-12.43 4.665-9.092 3.814-11.041 4.586-9.751 3.692-10.782 2.781-9.161 4.899-11.75 5.186-9.31 3.912-10.495 4.073-9.963 3.842-7.394 4.792-13.467 4.334-13.498 2.728-7.584 4.33-7.368 4.917-12.903 4.065-9.157 3.495-10.89 8.156-16.898 8.938-21.374 3.933-16.543 4.28-4.696 4.113-11.498 4.535-9.412 4.139-12.266.381-4.61 2.298-2.494 1.335-4.924 3.324-3.495 4.769-16.977 4.673-12.68 4.211-12.4 4.225-12.902 4.513-16.195 3.791-8.878v-4.158l4.414-15.529-.662-5.021 4.493-8.403-.061-13.001 3.915-11.574-.266-18.047 4.443-16.287.013-33.545.346-3.09 3.331-7.051.344-143.424 3.827-55.799.312-106.574 4.17-18.422 3.562-12.037 5.152-18.275 4.635-12.961-.973-4.488 3.044-6.369.798-6.067 3.606-10.733 1.584-6.372 2.753-11.509.27-3.74 4.239-11.17.963-5.917 3.891-12.877-.246-8.725 3.761-10.866.939-5.891 4.048-16.248.023-8.424 3.817-14.864-.561-18.243 4.645-7.258-.418-20.579.145-14.09-3.82-14.372-.623-5.357-3.156-11.471-4.632-13.373-4.235-9.421-4.35-10.605-4.259-8.245-7.903-12.926-3.895-8.001-8.651-13.25-.273-3.95-4.013-4.764-8.554-13.183-7.539-11.738-1.653-8.23-7.501-8.506-3.432-4.204-4.164-4.217-4.012-3.984-1.982-11.551-11.34-12.739-14.638-15.725-2.39-5.311-3.316-8.162-8.323-8.177-8.252-8.814-4.372-8.412-4.25-8.69-12.245-20.331-3.618-8.806-3.724-10.739-5.697-9.007-3.362-7.721-3.308-9.875-5.205-8.114-3.795-7.316-3.775-10.194-3.521-6.505-5.779-8.842-8.437-12.625-3.866-.479-3.899-3.518-12.516-.152-12.064-5.237-4.643.165-15.016-4.089-13.436-3.736-5.854-.071-10.43-3.674-4.596-.217-12.23-3.532-5.884-.723-16.387-3.786-2.962-.039-12.464-3.753-4.257-.343-17.606-4.14-4.337-.116-7.359-3.59-16.43-1.076-12.302-2.742-17.678-4.124-11.112-4.273-12.875-1.26-9.031-.176-7.475.731-8.951 1.347-5.239 4.302-19.586 15.257-11.767 12.368-9.277 20.524-7.943 8.052-8.894 8.745-7.64 8.542-3.999 2.845-9.541 8.692-4.447 8.898-2.316 12.392-.788 2.947-.181 4.548-3.977 25.194-.132 4.761-3.705 20.556-.649 5.495-4.361 20.313.156 3.965-.09 4.233-4.306 20.562-.082 4.576-3.478 19.396-.417 4.765-.051 3.897-3.138 13.141-.338 8.235-.718 4.435-.237 4.519-4.025 15.862v3.847l-.055 5.076-3.479 15.87.329 9.85-4.329 22.587-.02 6.124-4.143 19.281-.03 4.48-4.798 21.155-.278 8.476-3.44 20.376-.297 3.681-3.124 25.059-.513 4.253-4.227 22.241v3.52l-4.303 20.545-.004 8.666-4.38 20.066.723 8.628-.23 4.245-4.362 5.043.337 2.741 3.564 4.45 3.557 3.54 12.058 16.248 13.766 18.398 3.265 3.784 9.175 11.947 11.747 4.683 34.518.341 61.705 7.847 20.695-.585 13.323 4.657 24.673.379 28.43 3.273 17.88.356 10.769-3.678 13.331-4.928 12.402-15.745 5.296-8.793 2.714-12.487 4.848-12.668 4.243-8.254 2.722-11.977 5.547-8.348 4.542-13.891 2.72-6.157 4.165-13.416 7.64-20.351 9.492-20.655 8.317-21.599 4.275-8.88 4.445-11.096 3.322-12.441 4.422-9.35 3.884-11.841 5.388-8.682 3.83-12.788 4.081-8.065 3.607-12.37 4.667-8.426 3.754-11.714 3.788-9.548 3.386-11.168 5.478-9.51 4.516-10.978 3.866-13.657-.222-2.656-3.112-14.027-.422-8.243-4.532-16.832-.533-3.05-3.426-16.98v-4.254l-4.685-17.509.179-4.472-3.775-15.831-.106-8.411-4.956-11.995-3.593-13.953 8.847 26.005 6.809 21.451 5.49 7.631 3.311 7.618 4.285 9.38 4.007 7.348 4.407 8.938 4.547 8.787 4.131 8.026 3.099 7.695.709 4.247 3.703 3.809.689 4.398 3.27 3.988.666 5.91 3.977 19.029.525 29.902 3.606 33.375.135 33.05 4.691 8.716 10.349.324 14.592.026 11.708-.593 8.54-3.995 13.602-.238 16.198.26 35.601-7.85-16.335 7.963-12.425 7.18-11.672 9.297-12.017 7.231-9.125 1.124-4.04 7.988-11.159 4.553-9.522 8.526-3.508 3.266-8.555 5.428-3.299 2.524-9.381 4.397-7.772 3.867-5.137 3.731-2.341 9.917 6.678 3.522 8.989.465 15.378 4.192 25.312-.211 16.247 3.198 17.945.986-8.567 5.119-4.334 3.406-4.735.955-3.997 2.753-8.651 4.389-2.279-.076-5.183 3.994-8.911 4.682-7.798 3.636-3.063.433-9.299 3.421-8.139 4.089-4.636.107-12.169 4.942-15.994 4.1-3.99-.83-13.42 4.355-5.382.106-2.824.628-8.076 6.223-.281 6.183-3.6 7.123-3.887 8.715-4.987 5.551.007 3.423-4.235 4.965-.444 2.613-4.346 5.47-.274 2.776-2.704 4.196-5.188 5.362-.001 2.716-3.107 7.52-5.474 12.041-2.489 5.4-5.431 8.943-8.571 11.605-3.199 7.227-5.013 9.998-4.097 8.889-3.229 7.623-8.585 4.591-4.237 17.362-5.43 9.491 1.641 12.451-7.416 2.171-5.322-.29-7.925 4.108-8.407.452-5.125 4.868-1.798-.207-13.646 4.991-13.846 3.192-12.57 3.721-15.844 4.084-11.768 4.17-13.817 5.023-15.483 3.302-11.571 4.242-5.196 7.084-.353 5.975 3.111 7.404 5.05 9.491.006 5.118 4.363 7.408 2.961 6.333 1.481 6.355 3.032 6.2 5.759 13.096 4.104 9.206 2.011 7.527 5.299 10.84 7.341 13.587 9.045 13.396 4.943 4.595 8.069 12.982 3.195 3.179 10.176 13.58 2.942 3.354 8.958 13.875 2.483 1.943 9.429 12.3 12.987 16.135 8.202 13.752 3.614 3.901 4.524 4.539.697.808 8.441 7.196-5.106-3.333-3.335-3.863zm-549.017 675.854-.703 88.943-4.095 66.135.312 50.104-4.498 56.955.31 67.474-4.093 36.482-.568 91.818-3.307 113.44-3.683 116.483-4.91 102.637-5.329 91.643-2.889 80.479-4.106 86.268-4.549 83.507-3.53 77.414-.953 21.612-3.095 71.058-3.542 12.626-2.159 29.701-2.966 8.334-.62 11.035-3.537 8.921-1.464 11.535-2.483 1.567-1.581 11.702-3.342 4.945-.245-9.428-.001-8.728-2.342-3.599-1.39-33.24-4.602-17.124 1.017-65.846 3.007-32.703 1.2-63.322 4.196-37.202.353-41.27 3.59-38.159-.429-45.615 4.547-41.286.104-33.264 3.683-32.735-.246-46.314 4.735-41.262.354-33.617 4.163-49.552-.926-21.716 4.69-34.418-.133-22.955 4.415-41.6-.149-25.292 4.318-33.269-.658-29.262 4.317-28.309.08-37.702 4.143-12.736-.022-44.99 4.641-29.323.044-30.088 3.179-24.267.594-38.629 4.246-27.923.215-33.74 3.749-40.363-.262-17.382 4.221-42.752.551-15.959 3.73-40.031.438-18.319zm149.167 148.248-.499 10.652-3.625 21.362-.384 11.499-3.794 21.254-.314 8.742-.192 11.958-3.445 12.658-.371 8.819-.587 12.69-3.704 11.855.192 21.286-4.115 15.403.035 17.135-4.293 20.955-3.228 41.069-1.212 46.292-4.011 54.344-.891 20.423.891 83.401v16.953l3.703 37.378.907 15.228 2.333 4.049 1.45 16.573 4.449 13.606 3.688-5.291 4.469-10.912 3.958-17.84 3.717-15.797.49-8.522 4.609-17.065-.038-12.358 3.366-23.965.837-25.967-.297-17.094 4.596-12.469.38-36.719-.762-33.204-.02-159.611.139-30.882-2.853-30.844-1.396-11.809.197-23.753.371-9.643-.686-32.627zm-398.583-305.25 12.282-4.505 11.848-4.355 12.557-4.121 13.279-4.552 8.465-.423 10.914-3.579 21.323-3.634 16.084.28 17.636-4.635 16.643-3.843 24.9-4.041 12.007.422 17.498-4.509h12.669l17.639-3.694 31.479-4.692 32.439-3.654 46.442-4.381 17.404-.111 36.1-4.048h133.814l19.51 3.615 13.873-.118 11.759 4.96 9.079-.373 8.954 4.539 2.855.039 13.903 3.763 6.472 4.884 8.96 7.835v4.778l4.29 3.677 13.398 4.352 15.231-.497 4.16.254 24.97 3.888 47.019 8.34 15.739-3.719 1.086-4.577 3.049-5.443.208-7.817v-2.943l3.927-8.143.268-4.753 3.599-8.706.863-7.835 3.91-12.447.038-5.211 3.217-6.746 5.563-22.021.056-8.448 2.939-16.181.699 4.768-.483 12.442-2.97 17.64-1.378 19.492-4.098 15.671.207 13.368-.1 8.41-4.495 8.082 1.494 25.523 4.363 8.293 2.603.06 20.904-.007 13.4 4.105 32.896-1.055 20.479 4.471h8.222l.468 13.433-4.602 16.145-.353 29.491-2.98.078-8.673-.424-12.3-4.184-13.304-.407-11.443-4.03-18.383-.389-18.381-3.964-6.9.482-16.069-1.151-3.776 8.531-.175 8.622.464 13.307-3.165 7.366-1.437 20.996-2.76 12.741v13.426l-5.76 16.349.63 12.061-4.202 4.299.288 11.743-28.714.653-.292-13.014 3.904-11.67.23-9.476 4.006-6.658.034-14.614-.109-2.73 4.909-12.648-.166-5.308 4.527-6.516-.239-13.053 4.283-7.919-.859-11.049 4.347-5.294-.354-10.033-7.478-6.974-4.175-4.089-4.161-.404-3.322-4.099-5.36 3.299-8.928.091-3.254-2.618-16.979-1.085-24.975-4.436-28.225-4.133-51.181-4.131-32.536-4.098-33.148-4.177-9.055-.175-21.803-5.189-19.832.921-6.637-7.613-18.748 3.925-23.266.023-13.305-4.256-38.168-.551-12.183-3.255-15.653-.952-50.458.435-12.84-4.046-228.451.439-32.633 3.822zm805.143-40.799 4.734-17.887 5.51-11.453 2.9-8.308 5.166-13.247 2.805-12.525 4.202-8.944 4.214-6.911 4.643-9.711 8.268-19.845 4.563-9.745 2.831-5.68 4.839-9.461 4.71-8.994 3.52-10.919 4.374-9.736 4.385-6.759 4.136-9.144 4.172-8.837 3.926-6.73 4.188-9.489v-3.791l3.598-4.111v-5.299l3.669-2.475 1.377-5.318 2.463-3.627.532-4.133 3.649-3.814.495-4.994 4.888-4.555v-3.291l4.452-5.131.058-3.305 2.523-3.753.734-5.291 3.84-3.455.743-5.361 3.592-2.855.807-3.889 2.836-3.185 1.595-4.417 5.377-7.059 2.265-6.201 4.547-9.462 4.471-7.524 4.026-5.165-.059-3.476 3.093-4.128.571-3.955 4.91-4.733v-4.314l3.828-3.027.215-5.316 3.36-3.204 3.612-5.115.934-4.224 4.629-8.033 4.236-6.987 4.001-5.453 3.546-7.271 5.291-9.475 2.58-7.54 4.492-9.025 4.526-8.572-3.315 13.017-1.079 4.041-3.753 16.114-4.472 14.389v2.767l-3.301 16.79-4.465 16.124v5.858l-4.152 7.881-1.831 7.834-3.431 8.474-.292 6.527-3.09 6.166-.392 8.626-3.136 3.387-1.107 9.085-3.414 7.159-1.646 8.594-3.484 6.144-.97 7.773-2.769 5.919.538 5.397-3.944 6.378-.902 5.612-4.192 12.555-2.63 8.945-2.065 7.704-3.776 8.947-.105 3.244-3.175 8.662-1.374 7.322-2.404 5.269-.28 4.377-4.56 6.817-.199 9.314-3.362 5.235-1.836 7.172-1.518 3.852-1.684 5.504-3.095 11.452-3.563 11.661-4.579 12.76-4.866 11.217-3.895 10.587-3.507 11.315-4.546 12.799-4.059 12.801-.868 8.791-3.415 4.776-1.495 7.299-3.223 8.029-2.435 8.294-4.747.886-13.782-1.11-15.414-3.818-14.189.129-4.903-4.068-11.016-.343zm-491.527-338.901-.978 1.098-5.735 8.619-3.972 11.601-4.046 10.537v2.429l-7.249 12.262-4.696 7.73-.924 5.533-3.784 3.178v3.436l-4.947 8.531v4.972l-3.428 4.81-.283 4.869-3.634 6.213-3.628 9.309v2.639l-4.298 9.424-.071 4.536-4.307 5.336-.155 4.287-4.415 7.079-3.403 7.48-1.183 4.637-4.09 12.99-4.122 7.925-.319 3.391-3.305 8.29-3.683 12.698-3.744 12.547-5.394 10.092-.717 7.673-3.08 4.582-.912 7.059-9.566 4.171-15.519 3.843-16.729 5.271-12.259 3.957-16.013 4.286-12.341 3.891-16.497 4.759-12.154 3.864-16.453 3.982-13.526 3.504-16.65 4.652-16.547 4.229-13.778 4.767-10.625 3.456-4.508.051-29.645 8.231-12.981 5.113-16.576 2.315-24.537 5.395 5.043.096 28.585-4.159 25.687-5.157 15.973-3.631 9.254-.724 11.677-3.396 12.91-.321 12.113-4.268 15.556.052 12.361-4.773 8.476-.083 16.581-4.616 15.347 1.038 7.722-4.33h10.402l12.691-3.896 8.091-.052 16.399-4.005 8.111-.332 12.627-4.65 8.975.07 17.119-3.806 8.462-.217 11.468-3.218 9.958-.578 11.441-4.466 9.267.373 8.852-4.271 10.918-.077 8.488-3.911 12.129.334 15.982-3.957 12.922-4.467 5.026-.508 12.74-7.251 3.473-7.558-.086-14.335-7.734 3.983-11.712.584-13.183.665-16.067 4.598-17.566-.292-15.853-3.906-.994-10.07 4.221-14.031.263-10.999 4.363-14.997-.631-14.022 4.506-15.798-.556-16.591 4.946-12.579-.167-20.068 3.858-8.548.16-13.561 4.509-16.374-.166-7.755.819-8.613 3.61-12.425.428-15.291 1.612-6.389 1.89-2.123v-5.368zm-164.28-1055.3-.046 4.387-3.9 12.737 9.018 8.153 9.5.522 9.978 3.06 4.302.862 8.986 4.006 12.556 4.255 6.624 2.923 9.152 5.642 8.85 8.795 2.836 2.466 8.79 8.615 4.192 9.826 4.184 10.649 4.77 16.461.008 55.618-4.979 24.99-3.351 11.539-4.069 13.247-4.43 13.3-5.308 12.147-2.842 6.944-4.027 8.729-3.699 8.186-4.912 5.177-13.227 20.012-15.324 17.661-8.304 16.405-13.38 7.479-4.531 8.363-7.213 4.755-4.933 8.154-3.443 15.101-1.229 9.723-3.335 11.376.211 13.658-4.168 15.467.766 4.939-4.799 12.688.265 12.999-5.373 14.859 1.422 6.427-3.861 14.6-.873 12.553 8.984 12.859 36.772 42.642 3.785 2.17 20.163 22.297 4.135-.378 8.829 7.933 21.266-.009 15.11 4.379 23.225-.013 14.488 4.472 21.138-.268 20.273 4.121 14.158.002 16.039 3.97 21.254-.027 16.399-.447 3.66-3.041 7.657-4.448 5.945-4.267 7.66-3.859 12.267-8.72 8.336-4.194 8.349-4.69 3.725-2.602 8.194-5.442 3.402-2.92 1.583-13.658.455-8.626-4.187-14.891-.896-29.9-3.951-25.058.14-38.424 4.921-15.338v-6.432l3.678-9.547-.153-5.514 5.189-16.748-.792-7.764 3.942-12.493 4.609-19.92 2.261-17.775.601-4.501 4.321-16.558.217-7.204 3.243-8.643.57-12.503 5.011-8.683v-8.679l3.72-11.173.305-9.758 4.301-11.579-.467-8.325 4.98-12.692-.049-7.457 4.35-8.634-.087-10.002 3.904-10.727-.411-9.441 4.263-13.394.046-6.284 3.44-8.642.814-12.344 3.756-11.16.279-4.628 4.516-13.048.157-7.14 2.869-9.927.283-12.358 4.063-14.642.047-7.151 5.384-7.963 3.368-7.445 3.662-4.069 3.884-3.715 4.295-5.41 3.865-3.678 5.136-5.724 6.791-9.737 7.453-7.034 24.346-28.251 12.133-13.4 7.403-11.111 7.724-7.967 19.84-21.208 1.594-7.333v-4.972l-4.391-12.795-8.6-12.433-8.631-12.877-7.571-13.17-3.336-5.062-5.552-10.547-7.336-7.062-4.868-.454-7.172-4.218-8.204-.266-12.878-4.853-9.314.104-12.03-4.485-4.814.078-11.453-4.108h-4.83l-11.603-4.129-3.628.074-18.694-3.709h-1.625l-13.972-4.675-4.416-.251-11.124-3.511h-6.176l-11.038-4.327-9.177-.687-12.258-3.005-12.659-3.809-4.099-.047-17.224-4.195-3.014-.765-17.672 5.011-11.91 3.791-3.88 3.709-8.544 4.481-12.82 7.65-8.342 5.275-8.376 3.576-6.635 4.553-9.25 3.607-2.809 1.945-7.916 4.786-8.959 4.789-10.591 5.081-7.707 4.106-12.705 8.448-8.696 4.79-8.564 3.92-6.751 4.437-8.386 4.154-12.699 6.858-9.194 4.886-8.17 8.732-2.743 8.394-.683 8.973-5.087 15.3-4.606 17.63-3.695 18.5-4.004 13.6-4.118 13.402v3.624l-3.016 11.399-.368 4.665-4.581 12.937v3.609l-3.622 12.973zm-852.054-129.27 3.879 8.549 3.135 7.631 4.121 14.312 3.701 6.779 4.689 7.765 5.054 13.105 4.399 12.518 3.829 8.647 5.027 12.68 7.265 16.751 3.839 11.897.128 4.224 5.278 8.739 10.459 12.797 4.783-4.054 5.384-5.123 2.765-3.058 4.246-4.437 5.359-4.557 2.753-3.606 5.285-4.872 2.992-3.604 3.556-3.48 6.077-5.886 3.868-3.402 3.949-3.88 3.938-4.806 4.505-5.387 4.23-2.509 3.9-4.334 3.525-3.742 13.018-12.415 19.783-12.744 5.667-4.709 12.694-4.015 8.658-4.31 7.724-2.486 7.556-4.858 13.507-3.146 12.89-5.442 12.514-3.642 11.397-4.7 17.189-3.5 24.159-4.509 16.8-3.631 15.545-.481 13.648 3.193 12.352 5.006 21.228 12.913 15.81 7.146 5.656-4.056-.93-8.013-.377-9.084.163-31.358-3.239-27.85-1.474-15.049-3.025-24.769.296-20.14-3.901-17.638-1.251-16.616.873-17.413-4.182-28.294.129-16.296-4.138-5.704-17.524-11.025-7.512-4.294-7.933.393-12.669 4.375-9.042.232-13.024 3.212-20.116 4.454-25.32 4.669-13.714 3.969-23.518 4.291-16.002 4.417-16.873 3.607-22.128 3.996-24.255 3.907-32.324 3.863-8.453 17.741-8.942 12.333-4.094 4.301-8.663 12.644-3.776 3.242-8.122 12.921-5.6 5.054-6.642 11.664-8.762 12.024-12.586 17.137-4.215 3.53-4.559 10.035-7.728 11.125-16.841 16.761-.228 4-7.663 12.314zm498.998-137.5-.246 42.842-3.897 55.914-1.068 56.922-3.909 54.178 8.233 7.281 17.919 8.995 2.183 3.487 9.606 4.958 7.177 2.954 9.371 4.365 8.067 4.844 3.827 3.694 14.339 3.825 53.106-.129 16.463 5.114 25.331-.853 19.085 4.741h14.628l14.685 4.192 10.173-.101 19.057 3.986 5.259.158 19.779 3.896 5.377-.251 10.836.288 5.608-4.625-.047-2.923 4.423-9.151 2.787-4.261 1.344-4.059 3.587-3.522.637-6.177 3.68-7.01 3.755-7.619 3.942-8.752 4.41-9.397.346-7.142 4.24-7.952 4.413-9.12 4.139-9.146 4.526-11.081 3.827-8.907 4.188-12.508 3.852-8.898 3.056-8.68 9.626-15.171 3.368-12.638 5.842-13.37 2.667-7.522 4.096-9.011 1.475-3.9 3.52-7.959 7.815-15.696.159-4.593 4.291-5.402v-2.595l2.796-9.385 5.701-8.812v-3.032l-.392-12.67-2.891-3.251-20.999-29.854-5.691-12.137-8.314-4.316-15.502-.073-12.177.267-20.814-5.403-17.22.642-16.363-4.564-18.66-.532-24.169-3.655-17.042-.544-19.56-4.243-15.914.515-21.761-3.889-16.473-.158-8.228 4.076-16.913 7.74-21.089 9.738-4.374 3.624-3.611.146-3.914 3.979-9.415 5.19h-2.925l-9.281 4.04-7.978 3.005-8.312 4.886-8.712 3.337-9.28 5.441-7.446 3.772-7.439 4.528-7.974 3.252z" fill="#b7330a"/>
  <path d="m1697.17 1391.62-26.297-22.419-20.609-15.939-4.453-4.496-16.151-12.051-4.67-4.788-16.295-11.612-3.801-4.36-19.844-16.118-4.687-4.905-3.681-4.193-5.849-4.79-11.819-7.904-9.034-12.147-3.236-3.671-16.367-11.827-5.105-5.808-12.204-10.69-11.684-5.186-5.457-5.816-3.491-3.047-3.214-3.029-1.889-8.989-3.801-3.612-2.984-5.136-3.686-3.956-15.58-4.409-5.702-4.497-4.438-3.891-4.325-4.541-3.232-3.635-5.417-4.76-2.25-3.164-5.94-4.338-3.642-4.658-6.327-3.827-1.9-4.538-5.35-4.017-2.811-4.135-12.768-15.723-4.416-4.745-7.182-3.811-12.131 2.616-10.578 4.728-7.323 3.698-12.352 4.9-10.031 5.641-2.903 1.787-6.959 3.96-4.124 2.136-9.256 3.675-4.575 4.967.472 21.141 3.532 7.647.942 23.886 3.949 42.836-.457 8.229.134 33.227 4.121 37.158.488 19.635 3.774 8.913.425 8.794-5.119-13.044-3.811-12.331-.016-3.72-3.868-8.74-4.467-7.497.563-4.891-5.197-20.279-6.384-4.948-5.237-8.383-5.504-20.388-3.016-4.733-3.391-4.192-9.494-19.272-4.336-6.216-4.384-12.019-3.355-4.141-3.865-7.3-3.617-8.341-1.278-4.6-4.157-9.448-7.441-11.975-3.945-3.567-8.359-4.127-9.186-4.574-8.201-3.811-7.008-4.189-9.413-3.758-12.744-8.181-7.872-3.674-7.89-4.39-17.217-8.468-16.063-8.261-8.831-4.432-7.845-4.555-18.016-8.085-7.684-4.204-4.825-3.759-18.975-12.437-5.784-3.922-4.1-1.756-16.028-10.761-3.752-.949-8.553-2.764-4.836-.991-7.384-4.218-20.375-.257-26.553-.176-8.312-6.626-12.244-.363-8.165 2.073-4.661-.102-4.024-2.835-3.053-.035-8.656-3.444-8.924 3.148-3.332-.417-4.663-.035-13.175-7.65-19.104 3.336-17.605-3.753-11.749-.264-20.099-4.314-27.593.692-3.376.91-11.895 2.466-8.793 4.903-3.308.037-8.688 4.092-7.537.855-12.907 7.927-10.333 4.456-6.168-.921-4.073 4.297-12.581 4.884-9.81 4.315-6.92 3.167-4.373 3.797-5.015.035-13.733 4.697-10.126 4.879-17.02 11.911-4.658 2.906-4.081.275-8.344 5.36-3.575 3.317-4.553 1.733-2.817 2.688-9.274 5.025-12.082 7.879-4.208.247-3.515 3.613-8.681 3.706-9.354 4.964-11.91 8.904-21.263 11.745-7.899 4.452-7.974 4.319-4.161 3.402-8.573 4.194-8.871 3.891-3.831 3.81-8.589 4.558-12.088 8.117-12.173 8.429-9.083 4.376-3.99 4.323-8.453 4.244-21.193 8.149-3.849 7.799-12.959 8.823-10.619 5.024-14.244 12.224-11.928 8.649-29.694 19.613-24.366 19.434 28.468-24.211 12.646-10.745 9.929-9.931 10.249-6.91 5.399-8.558 7.079-4.297 5.725-4.604 4.024-8.89 3.996-3.855 3.862-3.587 4.282-4.023 3.822-3.572 7.872-5.898.942-2.599 3.861-4.194 28.766-33.329 4.98-5.139 7.883-7.446 8.287-13.123 12.651-15.217 5.04-9.958 3.987-3.827 4.395-8.616-.115-3.122-7.873-4.577-6.229 1.312-5.274 3.279-10.927 3.547-7.6 4.003-12.214 5.01-13.19 4.364-15.696 3.779-5.656.756-8.128 2.275 16.727-7.515 4.478-3.845 13.135-9.055 3.729-2.525 11.808-8.073 4.815-5.656 3.626-3.677 13.888-8.89 3.124-3.678 3.687-4.13 5.492-4.072 5.912-2.807 5.65-5.199 4.541-4.48 4.524-3.986 2.414-3.674 12.69-7.843 5.017-5.22 4.319-3.966 4.365-4.426 3.225-3.093 5.817-6.708 17.127-11.08 8.134-9.429 3.846-4.299 3.237-2.662 11.495-5.036 4.722-3.637 4.742-7.688 3.899-5.408 3.902-3.082 5.009-4.755 3.682-3.108 4.388-5.274 3.82-5.233 3.665-7.442-7.513-5.172-4.737 5.192-8.413.186-3.862.308-11.471 3.619-12.213.487-10.68 3.976-15.77.379-16.228 3.771-20.461.008-24.872 3.814-92.961-.101-11.947-3.684-16.371.471 24.33-5.034 8.552-3.408 9.186-3.615 3.918-.646 6.808-3.785 7.019-1.084 3.705-2.765 2.513-.326 3.891-.085 6.194-3.889 3.006-.471 7.647-3.647 4.441-.069 8.922-4.692 3.252-.035 5.694-3.564 2.801-.094 4.352-.262 3.21-3.858h4.292l4.315-.954 6.816-3.579 1.949-.22 3.254-.056 5.199-3.113 4.209-.456h3.479l4.689-4.093 4.79-.127 3.126-.357 9.719-8.061v-3.969l-2.903-4.123-6.202-4.84-.11-4.192-3.414-8.937-4.849-7.876-4.238-11.219-2.877-6.332-.035-2.952-5.123-7.423-.029-6.087-4.831-7.229.207-3.722-4.028-8.142-.167-6.047-3.297-11.145-.466-5.502-3.04-7.11-.454-5.954-.133-2.481-5.1-13.225-.028-6.291.888-10.483-4.615-11.272.555-50.223 4.895 13.031 2.926 8.734 1.536 8.157 1.82 3.092.056 2.971 4.937 5.899.292 3.385 4.798 5.727.307 6.938 2.239 4.213.737 5.393 4.037 3.878v3.703l3.865 3.757 4.659 7.957 4.195 8.72 4.348 4.036 3.927 9.062 3.798 3.873 3.467 7.644 4.686 5.27 3.378 2.85 5.555 5.812 3.642 3.519 3.627 3.061 5.678 4.714 3.42 3.585 8.1 4.765 8.206 3.686 64.406.539 11.18-.127 11.913-3.362 3.609-.117 3.984-.343 4.578-.447 5.098.489 13.049-.872 11.625-2.714 3.744-.097 8.316-.312 13.404-4.193 8.625-.518 3.167-.138 13.287-3.684 3.796-.111 11.587-3.661 5.335-.737 11.561-3.667 5.671-.518 10.661-4.222 12.465-3.271 13.589-4.955 9-3.523 11.33-3.771 20.728-9.294 4.976-.002 3.602-3.889 8.194-3.618 7.942-4.508 9.328-4.495 4.015-4.234 7.488-3.43 3.7-1.396 3.435-2.765 13.416-8.278 4.962-4.644 4.768-4.903 6.394-3.566 4.284-3.645 5.169-3.479 4.932-6.038 3.123-2.912 20.846-20.321 6.045-6.011 3.068-3.955 9.883-16.446 6.172-3.838 4.599-8.042 4.325-4.502 4.869-7.707 4.043-8.966 3.881-7.627 3.007-4.72 4.554-4.743.103-12.287 4.167-11.962.481-9.578 3.67-18.614-3.985-11.912-.84-4.95-8.102-9.368-7.896-4.034-3.649-.519-8.703-4.246-4.316-.028-8.395-3.818-4.037-.446-7.939-2.991-4.71-.757-12.144-4.276-5.628.496-11.209-4.482-4.151-.084-12.451-4-8.393.032-8.645-3.592-11.442-1.341-13.73-4.413-16.21.76-8.522-3.479-17.297-1.469-24.612-2.957-25.024-.258-14.65-4.257-121.039.174-9.505-.312-12.361-.64-9.019-3.65-6.72-3.49-5.262-3.196-2.635-1.358-9.205-6.939-7.758-5.376-12.036-4.842-7.033-3.582-2.298-.151-4.609-4.543-3.491-2.697-8.022-4.512-8.987-3.6-8.088-4.724-9.679-4.584-7.098-4.034-16.69-9.111-4.252-3.014-16.533-8.838-8.565-4.922-8.38-3.613-15.154-3.257-17.573 6.355-17.75 6.532-8.048 2.945-11.906 3.623-8.116 5.425-5.051.05-12.31 4.725-7.776 4.246-8.704 3.775-8.488 4.177-7.832 7.436-12.235 7.68-25.852 21.901-11.678 16.252-5.129 4.655-11.903 16.41-3.756 3.712-5.488 4.174-7.157 14.005-4.218 3.646-5.523 5.292-1.702 1.676-9.431 13.667-3.546 3.164-7.96 12.4-5.381 13.251-11.847 24.78-12.496 28.986-8.821 16.948-7.581 16.858-4.893 12.177-3.226 7.79-4.967 8.699-3.491 4.762-4.008 3.557-.497 8.509-5.27 8.69-2.151 7.415-5.426 3.318-.691 9.704-4.212 8.657-3.152 11.484-7.93 17.209-4.748 13.602-3.132 6.446-3.008 8.292-5.789 13.113-4.585 8.768-4.988 12.289-3.759 7.902-3.411 12.73-4.234 8.081-4.506 9.027-3.77 12.555-4.494 7.092-7.42 18.209-4.82 11.683-5.401 12.178-3.85 9.876-3.175 7.105-.478 2.577-3.928 9.678-.937 8.191-3.591 9.293-.3 15.693-3.017 8.307.371 41.164 2.373 4.932.993 21.34 3.71 3.012-.05 9.056 3.868 4.207.964 7.921 3.617 4.564.308 4.522.565 3.177 2.655 3.569.82 5.634 3.165 5.617 1.803 6.672 3.291 7.448 3.615 11.694 5.058 12.921 3.509 13.361 3.469 11.999 5.47 8.446 4.593 13.041 3.029 10.372 5.027 13.011 3.655 13.505 3.983 8.328 3.23 12.211 5.453 12.791 3.986 7.704 4.832 12.918-.062 11.883 6.627 13.261 5.466 9.445 4.921 14.679 2.858 12.197 3.813 8.936 5.591 17.054 3.176 7.447 15.842 12.586 4.868 4.559 8.65 8.341 7.367 3.772 17.562 17.026 21.183 13.499 3.425 2.819 12.425 8.006 4.792 4.611 12.569 7.785 3.265 4.935 7.943 4.046 4.88 3.783 12.412 7.9 4.047 4.676 12.344 8.732 13.006 8.212 13.291 8.322 12.335 8.451 3.193 4.383 9.496 4.252 3.897 4.875 6.511 2.981 5.619 4.104 6.986 3.763 6.311 5.371 6.454 3.141 4.925 4.412 8.275 4.7 4.186 3.913 12.752 8.025 12.944 8.444 8.296 3.992 4.797 4.745 10.916 5.705 9.311 5.932 12.083 8.123 16.589 8.816 7.438 7.824 10.05 4.805 7.545 3.868 8.896 5.354 6.907 3.095 21.356 11.761 12.861 9.622 27.992 15.247 21.643 13.107 20.421 11.989 13.129 9.196 8.169 4.415 9.175 4.614 11.324 7.033 8.138 4.659 12.481 7.181 8.092 4.527 22.061 13.264 6.849 4.266 9.794 7.602-9.48 5.581-4.059 3.202-11.899 7.833-13.559 8.506-11.772 8.485-8.232 4.428-8.917 4.841-8.279 4.037-7.905 4.024-7.368 3.465-9.353 4.856-8.257 2.626-12.991 4.719-11.34 5.21-8.352 7.66-.304 3.465-.777 21.112.818 9.358-3.769 24.287-.567 13.734-4.174 8.051-.384 32.441-4.818 24.197.326 13.754-3.464 7.721.716 33.825-5.003 20.299-.69 17.175-3.566 23.144-.853 17.834-4.19 17.142.473 19.174-3.957 14.378-.01 24.545-3.706 8.836.092 26.974-4.637 18.504-.155 16.385-3.902 20.512-.272 20.824-3.021 10.947-1.215 26.124-4.542 20.136.521 18.256-3.68 19.177-.86 21.353-3.038 20.789-.562 16.629-3.525 16.792-.399 8.918-.263 12.668-3.707 19.401-.53 17.901-3.535 20.107.289 17.515-4.889 20.14-.224 16.879-3.952 20.862v17.243l-3.518 23.238-.059 17.955-4.1 16.306-.19 21.674-3.941 19.491-.791 14.203-4.257 27.901v13.298l-3.865 19.313.09 17.871-4.767 25.024.649 12.362-3.683 23.469-.331 17.606-4.602 19.302.245 17.027-4.603 13.441-.382 22.169-2.702 22.857-.179 13.487-.093 9.31-3.735 13.909-.683 17.964-3.931 24.08-.414 13.908-4.253 23.132.092 17.339-4.154 16.791.357 17.455-3.886 16.318-.764 29.954-3.757 11.048-.777 24.957-3.986 11.368.113 25.767-3.782 16.749-.91 21.637-3.667 11.854-.927 25.894-2.881 9.073-.088 26.976-4.113 17.102.335 8.591.074 7.349-7.704 1.592-9.667-.836-108.021-.389.891-8.305.276-7.605 3.945-16.094 4.001-25.854v-20.983l4.559-29.06 3.77-33.443 3.312-36.552 4.738-30.114.25-29.098 3.907-8.105.052-17.348-.072-3.354 3.28-10.458.864-22.246.812-4.951 2.466-7.574 1.13-17.375.165-12.642 3.312-7.608.515-25.412 4.362-23.649-.161-9.2 4.599-16.026-1.126-17.439 5.278-21.664.343-11.702 3.784-16.989-.125-16.181 4.266-19.548.274-14.739 4.056-14.88-.238-18.529 3.652-19.303-.082-13.493 4.222-19.518.717-13.416 3.714-20.495-.218-17.274 4.274-16.101.342-16.899 3.557-16.9.308-16.681 4.071-15.219.848-13.466 3.073-17.245 1.034-20.653 3.467-14.655.593-15.065 2.506-19.087.306-14.398 5.101-23.567-.139-12.223 3.971-15.922.048-17.732 4.571-16.188-.178-17.067 3.711-16.703.087-19.868 3.926-13.299-.265-20.118 4.736-11.059.449-21.64 3.293-13.199-.184-21.228 4.198-10.871.31-26.93 4.79-10.365.403-18.686 3.927-7.843-.517-20.887 4.491-18.831.511-18.641 3.369-14.253.349-19.138 4.569-16.559-.581-20.321 4.157-12.181-.061-18.737 4.464-15.248-.049-15.689 3.458-16.623.761-17.346 2.939-11.638.751-22.223 4.506-11.509-.052-5.26-3.741-10.642-.575-13.824-4.338-15.363.616-9.277-5.069-15.616.53-13.856-3.752-11.305-.955-12.566-3.175-4.175-4.806-4.601-4.223-4.629-3.319-3.096-9.451-13.912-3.989-4.215-3.073-2.918-4.85-3.91-7.838-13.293-3.823-3.512-4.597-4.297-4.438-4.553-3.463-3.93-13.618-16.995-3.821-4.158-3.957-2.885-5.877-5.251-6.815-12.941-5.104-3.681-3.683-4.218-4.072-3.937-8.312-12.239-12.464-12.752-20.32-29.141-12.272-12.631-12.481-17.94-9.604-10.736-4.127-5.395-2.355-2.897-5.752-8.947-7.514-8.259-3.433-3.284-8.451-10.803-5.195-6.525-8.084-12.227-4.868-4.715-4.579-4.427-3.755-8.385-3.34-3.13-8.572-12.58-4.354-4.107-4.394-4.713-8.099-11.284-7.181-13.598-4.838-3.972-13.082-16.221-8.911-13.545-2.749-3.51-3.926-8.132-8.552-8.491-8.911-16.393-8.19-5.428-8.275-11.24-.401-8.247-7.314-4.085-9.438-14.436-11.498-18.449-1.624-4.566-4.536-5.666.279-2.707-3.594-4.31-3.409-8.545-.418-4.446-5.226-4.198-2.761-7.929-.091-3.992-4.386-7.739-3.278-7.428-4.581-10.263-.929-4.116-2.878-3.4-1.198-3.807-3.458-5.309-.461-4.438-3.709-6.864-.18-4.715-3.532-3.965-3.919-9.552-.247-3.092-4.651-8.458-4.085-8.184-.59-5.159-3.67-7.613-3.753-7.996-.426-4.383-4.541-7.256.098-4.128-2.999-5.481-.643-3.807-4.267-8.828-.039-3.223-3.962-8.025-.589-4.625-3.298-3.49-.937-4.819-3.041-8.262-1.031-5.147-3.505-6.837-.729-5.949-4.156-7.715-.38-3.954-4.145-7.775.013-5.459-4.3-8.645v-2.576l-2.906-9.47-1.267-4.367-2.571-8.347-1.082-3.374-3.413-11.287-.09-4.742-4.665-13.279-3.353-11.404-4.672-15.066-.039-5.726-3.773-11.726-.272-43.875 4.333-10.85 4.175-13.035 4.315-8.573 4.932-12.029 2.647-12.826 4.289-8.711 4.372-12.719 4.242-8.938 4.793-11.492 2.979-3.047.412-4.094 4.168-8.883 4.369-8.715 4.007-8.605 3.968-8.319.052-3.809 3.073-3.77.839-4.555 4.401-3.448v-3.701l4.244-5.88.1-2.723 3.867-5.309.536-4.016 3.353-4.446.106-3.392 3.266-4.002.876-3.103 4.051-5.37.449-3.898 3.862-4.746 4.248-8.699 4.015-8.371 4.424-5.142.217-3.956 3.974-3.245 4.066-6.932 4.621-12.83.172-7.9-.22-22.901-3.505-19.502-.27-19.843-4.994-21.691.22-22.099-4.231-16.361-.103-20.547-4.642-19.268 1.375-9.555.071-12.258-4.145-21.749-.489-12.113-4.66-24.922.023-7.588.652-12.274-4.085-21.687-.838-16.313.555-24.695 3.849-8.43 3.828-3.809 4.801-9.007-.107-4.204 4.132-4.58 2.973-2.99 4.405-9.321 5.304-7.877 7.418-12.946 4.698-8.283 5.005-7.421 7.371-12.433 5.641-9.402 6.613-10.627 7.582-9.415 5.7-16.262 3.735-5.956 8.441-15.29 4.818-10.451 8.8-9.795 3.076-9.769 4.413-8.52 3.066-2.656 4.583-9.059 3.903-7.289 5.044-3.679 4.312-8.413 4.267-9.244 3.968-5.58 3.125-6.847 5.1-8.699 3.881-7.493 3.658-5.184 4.41-7.967 3.258-2.951.832-5.763 4.014-4.948 3.579-7.079 4.71-4.6 9.766-3.705h3.229l11.389-4.344 5.208-.168 13.123-4.454 14.951-3.679 13.175-3.54 12.143-4.513 12.436-3.211 13.004-5.517 12.535-3.621 13.321-4.23 11.531-3.755 13.221-4.755 11.897-4.203 12.071-3.967 11.924-4.248 18.926-4.508 11.036-4.226 12.315-3.254 12.543-4.687 12.462-4.215 12.181-4.109 8.275-5.244 6.989-3.981h12.919l164.105 83.584 8.781 1.694 80.588-52.358 234.387-.562 162.77 128.048h9.539l42.29-25.233 25.674-.218 253.63 50.011 93.811 114.15 216.375 43.848 37.398 61.099 17.834 29.053 21.471 27.474 47.494 55.503 29.316 25.822 68.67 65.676 35.943 51.703 16.466 31.308 11.361 32.814 2.158 47.884-1.709 36.428-4.489 17.863-.55 10.487-4.297 16.13-4.801 23.006-3.657 22.797-3.713 17.085-5.345 20.817-3.079 16.728-3.207 19.906-6.129 16.744 1.355 60.203 3.736 41.033 5.364 37.928 3.674 43.264 3.162 52.661 1.134 186.136-4.88 55.001-3.434 30.198-4.868 25.594-4.672 21.381-4.662 17.013-2.82 19.131-5.268 16.079-3.856 13.441-3.895 13.218-3.638 13.395-3.994 11.817-5.334 13.824-3.375 12.81-4.503 12.336-3.793 12.553-3.668 11.79-5.274 12.44-3.396 12.282-3.985 8.677-4.328 11.467-4.857 13.208-3.931 12.848-4.16 7.392-4.236 12.404-3.314 9.48-5.514 12.012-3.177 12.294-4.414 8.826-4.602 12.448-5.126 11.658-2.589 12.588-4.868 7.86-3.893 12.916-4.845 8.249-3.845 9.113-3.602 9.116-4.015 11.842-4.302 7.241-4.696 8.54-4.397 8.776-2.931 6.962-5.214 13.931-3.143 6.727-4.842 10.315-4.077 7.317-3.733 9.195-3.738 7.242-4.46 11.229-4.291 10.752-4.724 11.192-4.372 11.899-3.777 13.541-5.22 14.152-3.712 12.003-3.477 7.642-.189 15.286-3.223 17.049 3.289 17.516 4.779 82.936 3.102 91.309 4.081 87.94 4.673 92.559 3.827 90.241 5.188 83.657 3.704 91.581 4.124 94.247 4.002 86.9 3.449 92.001 4.58 82.182 4.554 92.167 3.821 90.255 4.815 89.619.593 42.065-174.89 2.692-4.656-69.91-5.266-99.319-2.647-109.279-4.605-103.737-3.351-107.213-4.44-99.995-4.639-108.275-4.806-105.516-4.328-102.691-3.374-108.357-3.236-97.505-1.421-227.106 42.449-36.892 6.714-11.869 8.836-15.904 5.388-13.887 3.697-12.451-.154-17.056 4.498-19.364-.553-31.435 4.488-31.267-.126-34.035 3.269-7.695 1.838-17.257 3.187-12.43 4.665-9.092 3.814-11.041 4.586-9.751 3.692-10.782 2.781-9.161 4.899-11.75 5.186-9.31 3.913-10.495 4.072-9.963 3.843-7.394 4.792-13.467 4.334-13.498 2.727-7.584 4.33-7.368 4.917-12.903 4.065-9.157 3.495-10.89 8.156-16.898 8.938-21.374 3.933-16.542 4.28-4.697 4.113-11.498 4.535-9.412 4.139-12.266.381-4.61 2.298-2.494 1.335-4.924 3.324-3.495 4.77-16.977 4.672-12.68 4.211-12.4 4.225-12.902 4.513-16.194 3.791-8.879v-4.158l4.414-15.529-.662-5.02 4.494-8.404-.062-13.001 3.915-11.574-.266-18.047 4.444-16.287.012-33.545.346-3.09 3.331-7.051.345-143.424 3.826-55.799.312-106.574 4.17-18.422 3.562-12.037 5.153-18.275 4.634-12.961-.972-4.488 3.043-6.369.798-6.067 3.606-10.733 1.584-6.372 2.753-11.509.27-3.74 4.239-11.17.963-5.917 3.891-12.877-.245-8.725 3.76-10.866.939-5.891 4.048-16.247.023-8.425 3.817-14.863-.561-18.244 4.645-7.258-.418-20.579.145-14.09-3.82-14.372-.623-5.357-3.156-11.471-4.631-13.373-4.236-9.421-4.35-10.605-4.259-8.245-7.903-12.926-3.895-8.001-8.651-13.25-.273-3.95-4.013-4.764-8.554-13.183-7.539-11.738-1.653-8.229-7.5-8.507-3.433-4.204-4.164-4.217-4.012-3.984-1.982-11.551-11.339-12.739-14.639-15.725-2.39-5.311-3.316-8.162-8.323-8.177-8.252-8.814-4.372-8.412-4.25-8.69-12.245-20.331-3.618-8.806-3.724-10.739-5.697-9.007-3.362-7.721-3.308-9.875-5.205-8.114-3.795-7.316-3.775-10.193-3.521-6.506-5.778-8.842-8.438-12.625-3.866-.478-3.899-3.519-12.516-.152-12.063-5.237-4.644.165-15.016-4.089-13.436-3.736-5.854-.071-10.43-3.674-4.596-.217-12.229-3.532-5.885-.723-16.387-3.786-2.962-.039-12.464-3.753-4.257-.343-17.606-4.14-4.337-.115-7.359-3.59-16.429-1.077-12.303-2.742-17.678-4.124-11.112-4.273-12.875-1.26-9.031-.176-7.475.731-8.951 1.347-5.238 4.302-19.587 15.257-11.767 12.368-9.276 20.524-7.944 8.052-8.894 8.745-7.64 8.542-3.999 2.845-9.541 8.692-4.447 8.898-2.315 12.392-.788 2.947-.182 4.548-3.977 25.194-.132 4.761-3.705 20.556-.648 5.495-4.362 20.313.156 3.965-.089 4.233-4.307 20.562-.081 4.576-3.479 19.396-.417 4.765-.051 3.897-3.138 13.141-.337 8.235-.719 4.436-.237 4.518-4.025 15.862v3.847l-.055 5.076-3.479 15.87.329 9.851-4.329 22.586-.019 6.124-4.144 19.281-.029 4.48-4.799 21.155-.278 8.476-3.44 20.376-.297 3.681-3.124 25.059-.513 4.253-4.227 22.241v3.52l-4.303 20.545-.004 8.666-4.38 20.066.723 8.628-.23 4.245-4.362 5.043.337 2.741 3.564 4.45 3.557 3.54 12.058 16.248 13.766 18.398 3.265 3.784 9.175 11.947 11.747 4.684 34.518.34 61.705 7.847 20.695-.584 13.324 4.657 24.672.378 28.43 3.273 17.88.356 10.769-3.678 13.331-4.928 12.402-15.745 5.296-8.793 2.715-12.487 4.847-12.668 4.243-8.254 2.722-11.977 5.547-8.348 4.542-13.891 2.72-6.157 4.165-13.416 7.64-20.351 9.492-20.655 8.317-21.599 4.275-8.88 4.445-11.096 3.322-12.441 4.422-9.35 3.884-11.841 5.388-8.682 3.831-12.788 4.08-8.065 3.607-12.37 4.667-8.426 3.754-11.714 3.788-9.548 3.386-11.168 5.478-9.51 4.516-10.978 3.866-13.657-.222-2.656-3.112-14.027-.422-8.243-4.531-16.832-.533-3.05-3.427-16.98v-4.254l-4.685-17.509.179-4.472-3.775-15.831-.105-8.411-4.957-11.995-3.593-13.953 8.847 26.005 6.809 21.451 5.49 7.631 3.311 7.618 4.285 9.38 4.007 7.348 4.407 8.938 4.547 8.787 4.131 8.026 3.099 7.695.709 4.247 3.703 3.809.689 4.398 3.27 3.988.666 5.91 3.977 19.029.525 29.902 3.606 33.375.135 33.05 4.691 8.716 10.349.324 14.592.026 11.708-.593 8.54-3.995 13.602-.238 16.198.26 35.601-7.85-16.335 7.963-12.425 7.18-11.672 9.297-12.017 7.231-9.125 1.124-4.04 7.988-11.159 4.553-9.521 8.526-3.509 3.266-8.555 5.428-3.299 2.524-9.381 4.397-7.772 3.867-5.137 3.731-2.341 9.917 6.679 3.522 8.988.465 15.379 4.192 25.311-.211 16.247 3.198 17.945.986-8.567 5.119-4.333 3.406-4.736.955-3.997 2.753-8.651 4.389-2.279-.076-5.183 3.994-8.911 4.683-7.798 3.636-3.063.432-9.299 3.422-8.139 4.088-4.635.107-12.17 4.942-15.994 4.1-3.99-.83-13.419 4.355-5.383.106-2.824.628-8.076 6.223-.281 6.183-3.6 7.123-3.886 8.715-4.988 5.551.007 3.423-4.235 4.965-.444 2.613-4.346 5.47-.273 2.776-2.705 4.196-5.188 5.362-.001 2.717-3.107 7.519-5.474 12.041-2.489 5.4-5.431 8.943-8.571 11.605-3.198 7.227-5.013 9.998-4.098 8.889-3.229 7.623-8.584 4.591-4.238 17.362-5.43 9.491 1.641 12.451-7.416 2.171-5.322-.29-7.925 4.108-8.407.452-5.125 4.868-1.798-.207-13.646 4.991-13.846 3.192-12.57 3.721-15.844 4.084-11.768 4.17-13.817 5.023-15.483 3.302-11.571 4.242-5.196 7.084-.352 5.975 3.11 7.404 5.05 9.491.006 5.118 4.363 7.408 2.961 6.333 1.481 6.355 3.033 6.2 5.758 13.096 4.104 9.206 2.011 7.527 5.3 10.84 7.34 13.587 9.045 13.396 4.943 4.595 8.069 12.982 3.196 3.179 10.176 13.58 2.941 3.354 8.958 13.875 2.483 1.943 9.429 12.3 12.987 16.135 8.202 13.752 3.614 3.901 4.524 4.539.697.808 8.441 7.196-5.106-3.333-3.335-3.863zm-549.016 675.854-.704 88.943-4.095 66.135.312 50.104-4.498 56.955.311 67.474-4.094 36.482-.568 91.818-3.307 113.44-3.683 116.483-4.909 102.637-5.33 91.643-2.889 80.479-4.105 86.268-4.55 83.507-3.529 77.414-.954 21.612-3.095 71.058-3.541 12.626-2.16 29.701-2.966 8.334-.619 11.035-3.538 8.921-1.464 11.535-2.483 1.567-1.581 11.702-3.342 4.945-.245-9.428-.001-8.728-2.342-3.599-1.39-33.24-4.602-17.124 1.018-65.846 3.006-32.703 1.2-63.322 4.196-37.202.353-41.27 3.59-38.159-.429-45.615 4.547-41.286.104-33.264 3.683-32.735-.246-46.314 4.735-41.262.354-33.617 4.163-49.551-.926-21.717 4.69-34.418-.133-22.955 4.415-41.6-.149-25.292 4.319-33.269-.659-29.262 4.317-28.309.08-37.702 4.143-12.736-.022-44.99 4.641-29.323.044-30.088 3.179-24.267.594-38.629 4.246-27.923.215-33.74 3.749-40.363-.261-17.382 4.22-42.752.551-15.959 3.73-40.031.438-18.319zm149.166 148.248-.499 10.653-3.625 21.361-.384 11.5-3.794 21.253-.314 8.742-.191 11.958-3.446 12.658-.371 8.819-.587 12.691-3.704 11.854.192 21.286-4.114 15.403.034 17.135-4.293 20.955-3.228 41.069-1.211 46.292-4.012 54.344-.891 20.423.891 83.401v16.953l3.703 37.378.908 15.228 2.332 4.049 1.45 16.573 4.449 13.606 3.688-5.291 4.469-10.912 3.958-17.84 3.717-15.797.49-8.522 4.609-17.065-.038-12.357 3.366-23.966.838-25.967-.297-17.094 4.595-12.469.381-36.719-.763-33.203-.02-159.612.14-30.882-2.853-30.844-1.397-11.809.197-23.753.371-9.643-.686-32.627zm-398.583-305.25 12.282-4.505 11.848-4.355 12.557-4.121 13.28-4.551 8.464-.423 10.914-3.58 21.323-3.634 16.084.28 17.636-4.635 16.643-3.843 24.9-4.041 12.007.422 17.498-4.509h12.669l17.639-3.694 31.48-4.692 32.438-3.654 46.442-4.381 17.405-.111 36.099-4.047h133.814l19.51 3.614 13.873-.118 11.759 4.96 9.079-.373 8.954 4.539 2.855.04 13.904 3.762 6.471 4.884 8.96 7.835v4.778l4.29 3.677 13.399 4.352 15.23-.497 4.16.254 24.97 3.888 47.019 8.34 15.739-3.719 1.086-4.577 3.049-5.443.208-7.817v-2.943l3.927-8.143.268-4.753 3.599-8.706.863-7.834 3.91-12.448.038-5.21 3.217-6.747 5.563-22.021.056-8.448 2.939-16.181.699 4.768-.483 12.442-2.97 17.64-1.378 19.492-4.098 15.671.207 13.369-.1 8.409-4.495 8.083 1.494 25.522 4.363 8.293 2.603.06 20.904-.007 13.4 4.105 32.896-1.055 20.48 4.471h8.221l.468 13.433-4.602 16.145-.353 29.491-2.98.078-8.673-.424-12.299-4.184-13.305-.407-11.443-4.03-18.382-.389-18.381-3.964-6.901.482-16.069-1.151-3.776 8.531-.175 8.622.464 13.307-3.165 7.366-1.436 20.997-2.761 12.74v13.426l-5.76 16.35.63 12.06-4.202 4.299.288 11.743-28.714.653-.292-13.014 3.904-11.669.23-9.477 4.007-6.658.033-14.614-.109-2.73 4.909-12.648-.166-5.307 4.527-6.517-.238-13.053 4.282-7.919-.859-11.049 4.347-5.294-.354-10.033-7.478-6.974-4.175-4.089-4.16-.404-3.323-4.099-5.36 3.299-8.928.091-3.254-2.617-16.979-1.086-24.975-4.436-28.225-4.133-51.181-4.131-32.536-4.098-33.148-4.177-9.055-.175-21.803-5.189-19.832.921-6.637-7.613-18.748 3.926-23.266.023-13.305-4.257-38.168-.551-12.182-3.255-15.654-.952-50.458.435-12.84-4.046-228.45.439-32.634 3.822zm805.143-40.799 4.734-17.887 5.51-11.453 2.9-8.308 5.166-13.247 2.805-12.525 4.202-8.943 4.214-6.912 4.643-9.711 8.268-19.845 4.563-9.745 2.831-5.68 4.839-9.461 4.71-8.994 3.52-10.919 4.374-9.736 4.385-6.759 4.136-9.144 4.172-8.837 3.926-6.73 4.188-9.489v-3.791l3.598-4.111v-5.299l3.669-2.475 1.377-5.318 2.464-3.627.531-4.133 3.649-3.814.495-4.994 4.888-4.555v-3.29l4.453-5.132.057-3.305 2.523-3.753.734-5.291 3.84-3.455.743-5.361 3.592-2.855.807-3.889 2.836-3.185 1.595-4.417 5.377-7.058 2.265-6.202 4.547-9.462 4.471-7.524 4.026-5.165-.059-3.476 3.093-4.128.571-3.955 4.91-4.733v-4.314l3.828-3.027.215-5.316 3.36-3.204 3.612-5.115.935-4.224 4.628-8.033 4.236-6.987 4.001-5.453 3.547-7.271 5.29-9.475 2.58-7.54 4.492-9.025 4.527-8.572-3.316 13.017-1.079 4.041-3.753 16.114-4.472 14.389v2.767l-3.301 16.79-4.465 16.124v5.858l-4.152 7.881-1.831 7.834-3.431 8.474-.292 6.527-3.09 6.166-.392 8.627-3.136 3.387-1.107 9.084-3.414 7.159-1.646 8.594-3.484 6.144-.97 7.773-2.768 5.919.538 5.397-3.944 6.378-.903 5.612-4.192 12.555-2.63 8.945-2.065 7.704-3.776 8.947-.105 3.244-3.174 8.662-1.375 7.323-2.404 5.268-.279 4.377-4.561 6.817-.198 9.314-3.363 5.235-1.836 7.172-1.518 3.852-1.684 5.504-3.095 11.452-3.563 11.661-4.579 12.76-4.866 11.217-3.894 10.588-3.508 11.314-4.546 12.799-4.059 12.801-.868 8.792-3.415 4.775-1.495 7.299-3.223 8.029-2.435 8.294-4.747.886-13.782-1.11-15.414-3.818-14.189.129-4.903-4.067-11.015-.344zm-491.527-338.901-.978 1.098-5.735 8.62-3.972 11.6-4.046 10.537v2.429l-7.249 12.262-4.696 7.73-.924 5.533-3.784 3.178v3.437l-4.947 8.53v4.972l-3.428 4.81-.283 4.869-3.634 6.213-3.628 9.309v2.639l-4.298 9.424-.071 4.536-4.306 5.336-.156 4.287-4.415 7.079-3.403 7.48-1.183 4.637-4.09 12.99-4.122 7.925-.318 3.392-3.306 8.289-3.683 12.698-3.744 12.547-5.394 10.092-.717 7.674-3.08 4.581-.912 7.059-9.566 4.171-15.519 3.843-16.729 5.271-12.259 3.957-16.013 4.286-12.341 3.891-16.497 4.759-12.154 3.864-16.453 3.982-13.525 3.504-16.651 4.653-16.547 4.228-13.778 4.767-10.625 3.456-4.508.051-29.645 8.231-12.981 5.113-16.576 2.315-24.537 5.395 5.043.097 28.585-4.16 25.687-5.157 15.973-3.631 9.254-.724 11.677-3.396 12.911-.321 12.112-4.268 15.556.052 12.361-4.773 8.476-.083 16.581-4.616 15.348 1.038 7.722-4.33h10.401l12.691-3.896 8.091-.052 16.399-4.005 8.111-.332 12.627-4.65 8.975.07 17.119-3.806 8.462-.217 11.469-3.218 9.957-.577 11.441-4.467 9.267.373 8.853-4.271 10.917-.076 8.488-3.912 12.129.334 15.982-3.957 12.922-4.467 5.027-.508 12.739-7.251 3.473-7.557-.086-14.336-7.733 3.983-11.712.584-13.184.665-16.067 4.598-17.566-.292-15.853-3.906-.993-10.07 4.22-14.031.264-10.999 4.362-14.997-.63-14.022 4.505-15.797-.555-16.592 4.945-12.579-.167-20.067 3.858-8.549.16-13.561 4.509-16.374-.166-7.755.819-8.613 3.611-12.424.427-15.292 1.612-6.389 1.89-2.122v-5.369zm-164.28-1055.3-.046 4.387-3.9 12.737 9.018 8.153 9.5.522 9.978 3.06 4.302.862 8.986 4.006 12.556 4.255 6.624 2.923 9.152 5.642 8.85 8.795 2.836 2.466 8.79 8.615 4.192 9.826 4.184 10.649 4.771 16.461.007 55.618-4.978 24.99-3.352 11.539-4.069 13.247-4.43 13.3-5.307 12.147-2.843 6.944-4.026 8.729-3.7 8.186-4.912 5.177-13.227 20.012-15.324 17.661-8.304 16.405-13.38 7.479-4.531 8.363-7.212 4.755-4.933 8.154-3.444 15.101-1.229 9.723-3.335 11.376.211 13.658-4.168 15.467.766 4.939-4.799 12.688.265 12.999-5.373 14.859 1.422 6.427-3.861 14.6-.873 12.553 8.984 12.859 36.773 42.642 3.784 2.17 20.163 22.297 4.135-.378 8.829 7.933 21.266-.009 15.11 4.379 23.226-.012 14.487 4.472 21.138-.269 20.273 4.121 14.158.002 16.039 3.97 21.254-.027 16.399-.447 3.661-3.041 7.657-4.448 5.944-4.267 7.66-3.859 12.267-8.72 8.337-4.193 8.348-4.691 3.725-2.602 8.194-5.442 3.403-2.92 1.583-13.658.454-8.626-4.186-14.891-.897-29.899-3.951-25.059.14-38.424 4.921-15.338v-6.431l3.678-9.548-.153-5.514 5.189-16.748-.791-7.764 3.941-12.492 4.609-19.921 2.261-17.775.602-4.501 4.321-16.558.216-7.204 3.243-8.643.57-12.503 5.011-8.683v-8.679l3.721-11.173.304-9.758 4.301-11.579-.467-8.325 4.98-12.692-.049-7.457 4.35-8.633-.087-10.003 3.904-10.727-.411-9.441 4.263-13.394.046-6.284 3.44-8.642.814-12.344 3.756-11.16.279-4.628 4.516-13.048.157-7.14 2.87-9.927.283-12.358 4.062-14.642.047-7.151 5.384-7.963 3.368-7.445 3.662-4.069 3.884-3.715 4.295-5.41 3.865-3.678 5.136-5.723 6.792-9.738 7.452-7.034 24.347-28.251 12.132-13.4 7.403-11.111 7.724-7.966 19.84-21.209 1.594-7.333v-4.972l-4.391-12.795-8.6-12.433-8.631-12.877-7.571-13.17-3.336-5.062-5.552-10.547-7.336-7.062-4.867-.454-7.173-4.218-8.204-.266-12.878-4.853-9.314.104-12.03-4.485-4.813.078-11.454-4.108h-4.83l-11.602-4.129-3.629.074-18.694-3.709h-1.625l-13.972-4.675-4.416-.251-11.124-3.51h-6.176l-11.038-4.328-9.177-.686-12.258-3.006-12.659-3.809-4.099-.047-17.224-4.195-3.014-.765-17.671 5.011-11.911 3.791-3.879 3.709-8.545 4.481-12.82 7.65-8.342 5.275-8.376 3.576-6.635 4.553-9.25 3.607-2.809 1.945-7.915 4.786-8.96 4.789-10.59 5.081-7.707 4.106-12.706 8.448-8.696 4.79-8.564 3.92-6.751 4.438-8.386 4.153-12.698 6.859-9.195 4.885-8.169 8.732-2.744 8.394-.683 8.973-5.087 15.3-4.606 17.63-3.695 18.5-4.004 13.6-4.118 13.402v3.624l-3.016 11.4-.368 4.664-4.581 12.937v3.61zm-852.054-129.27 3.879 8.549 3.135 7.631 4.121 14.312 3.701 6.779 4.689 7.765 5.054 13.105 4.399 12.518 3.829 8.647 5.027 12.68 7.265 16.751 3.839 11.898.129 4.223 5.277 8.739 10.46 12.797 4.782-4.054 5.384-5.123 2.765-3.058 4.246-4.437 5.359-4.557 2.753-3.605 5.285-4.873 2.992-3.604 3.556-3.48 6.077-5.886 3.868-3.401 3.949-3.881 3.939-4.805 4.504-5.388 4.23-2.509 3.9-4.334 3.525-3.742 13.019-12.415 19.782-12.744 5.667-4.709 12.694-4.015 8.658-4.31 7.724-2.486 7.556-4.858 13.507-3.146 12.89-5.442 12.514-3.642 11.397-4.7 17.189-3.5 24.159-4.509 16.8-3.631 15.545-.481 13.648 3.193 12.352 5.006 21.228 12.913 15.81 7.146 5.656-4.056-.93-8.013-.377-9.084.164-31.358-3.24-27.85-1.474-15.049-3.025-24.769.296-20.14-3.901-17.638-1.251-16.616.873-17.413-4.182-28.294.129-16.296-4.138-5.704-17.524-11.025-7.512-4.293-7.932.393-12.67 4.374-9.042.232-13.024 3.212-20.116 4.454-25.32 4.669-13.713 3.969-23.519 4.291-16.002 4.417-16.873 3.607-22.128 3.996-24.255 3.907-32.323 3.863-8.454 17.741-8.941 12.333-4.094 4.301-8.664 12.644-3.775 3.242-8.123 12.921-5.6 5.054-6.642 11.664-8.762 12.024-12.586 17.137-4.215 3.53-4.558 10.035-7.729 11.125-16.841 16.761-.228 4-7.662 12.315zm498.999-137.5-.247 42.842-3.896 55.914-1.069 56.922-3.909 54.178 8.233 7.281 17.919 8.995 2.183 3.487 9.606 4.958 7.177 2.954 9.372 4.365 8.066 4.844 3.827 3.694 14.339 3.825 53.106-.129 16.463 5.114 25.331-.853 19.085 4.741h14.628l14.685 4.193 10.173-.101 19.057 3.985 5.259.158 19.779 3.897 5.377-.252 10.836.288 5.608-4.625-.047-2.923 4.423-9.151 2.787-4.261 1.344-4.059 3.588-3.522.636-6.177 3.68-7.01 3.755-7.619 3.942-8.752 4.41-9.397.346-7.142 4.24-7.952 4.413-9.12 4.139-9.146 4.526-11.081 3.827-8.907 4.188-12.508 3.852-8.898 3.056-8.68 9.626-15.171 3.368-12.638 5.843-13.37 2.667-7.522 4.095-9.01 1.475-3.901 3.521-7.959 7.815-15.696.158-4.593 4.291-5.402v-2.595l2.796-9.385 5.701-8.812v-3.032l-.392-12.67-2.891-3.25-20.999-29.855-5.69-12.137-8.315-4.316-15.502-.073-12.177.267-20.813-5.403-17.221.642-16.362-4.564-18.661-.532-24.169-3.655-17.042-.544-19.56-4.243-15.914.515-21.761-3.889-16.473-.157-8.228 4.075-16.913 7.74-21.089 9.738-4.374 3.624-3.611.146-3.913 3.979-9.416 5.191h-2.924l-9.282 4.039-7.978 3.005-8.312 4.886-8.712 3.337-9.28 5.441-7.446 3.772-7.439 4.528-7.974 3.252z" fill="#241f20"/>
</svg>